<svg width="133" height="80" viewBox="0 0 133 80" fill="none" xmlns="http://www.w3.org/2000/svg">
<path d="M133 52L128.5 51.85C127.993 60.1024 131.09 66.1906 132 76H126C123.29 65.726 121.577 60.9624 115.5 53.5H117C98.5151 52.633 88.7081 50.6485 72 45C50.7806 34.84 22.3042 43.1949 22 45C13.4335 54.6297 6 74.3 5.5 76C5 77.7 5 79.5 2.5 79.5C1 79 0 78 0 78C4.61087 58.7525 4.91071 51.6262 9.99999 45C6.67634 31.1939 8.4464 25.3542 16.5 17.5C45.7464 -7.66152 66.2248 -4.27001 107 20C122.93 29.1665 129.752 35.9506 133 52Z" fill="url(#paint0_linear_7_7)"/>
<path d="M133 52L128.5 51.85C127.993 60.1024 131.09 66.1906 132 76H126C123.29 65.726 121.577 60.9624 115.5 53.5H117C98.5151 52.633 88.7081 50.6485 72 45C50.7806 34.84 22.3042 43.1949 22 45C13.4335 54.6297 6 74.3 5.5 76C5 77.7 5 79.5 2.5 79.5C1 79 0 78 0 78C4.61087 58.7525 4.91071 51.6262 9.99999 45C6.67634 31.1939 8.4464 25.3542 16.5 17.5C45.7464 -7.66152 66.2248 -4.27001 107 20C122.93 29.1665 129.752 35.9506 133 52Z" fill="url(#paint1_linear_7_7)"/>
<path d="M48.5 63C40.7378 63.5967 36.4753 63.687 29 63.5C24.3977 63.2278 24.5478 62.5718 26.5 58.5C34.927 53.1471 38.9583 51.4152 48.5 52.5C53.4148 57.6473 53.1817 59.8966 48.5 63Z" fill="url(#paint2_linear_7_7)"/>
<path d="M81 63.5C77.592 61.5311 77.0605 59.8626 79.5 55.5C85.2467 51.9589 90.0657 53.1542 101.5 57C105.666 60.3175 106.349 62.2143 102.5 63.5C93.9553 64.1846 90.1165 64.0772 81 63.5Z" fill="url(#paint3_linear_7_7)"/>
<path d="M48.5 63C40.7378 63.5967 36.4753 63.687 29 63.5C24.3977 63.2278 24.5478 62.5718 26.5 58.5C34.927 53.1471 38.9583 51.4152 48.5 52.5C53.4148 57.6473 53.1817 59.8966 48.5 63Z" stroke="#392508"/>
<path d="M81 63.5C77.592 61.5311 77.0605 59.8626 79.5 55.5C85.2467 51.9589 90.0657 53.1542 101.5 57C105.666 60.3175 106.349 62.2143 102.5 63.5C93.9553 64.1846 90.1165 64.0772 81 63.5Z" stroke="#392508"/>
<defs>
<linearGradient id="paint0_linear_7_7" x1="65.5" y1="0.147548" x2="126" y2="55.5" gradientUnits="userSpaceOnUse">
<stop offset="0.25" stop-color="#392508"/>
<stop offset="0.609963" stop-color="#241500"/>
</linearGradient>
<linearGradient id="paint1_linear_7_7" x1="65.5" y1="0.147545" x2="136.5" y2="80" gradientUnits="userSpaceOnUse">
<stop offset="0.160504" stop-color="#392508"/>
<stop offset="0.410553" stop-color="#241500"/>
<stop offset="0.544382" stop-color="#241500"/>
<stop offset="0.983346" stop-color="#392508"/>
</linearGradient>
<linearGradient id="paint2_linear_7_7" x1="65.1247" y1="52.1922" x2="65.1247" y2="63.974" gradientUnits="userSpaceOnUse">
<stop stop-color="#392508"/>
<stop offset="1" stop-color="#241500"/>
</linearGradient>
<linearGradient id="paint3_linear_7_7" x1="65.1247" y1="52.1922" x2="65.1247" y2="63.974" gradientUnits="userSpaceOnUse">
<stop stop-color="#392508"/>
<stop offset="1" stop-color="#241500"/>
</linearGradient>
</defs>
</svg>
