<svg width="141" height="103" viewBox="0 0 141 103" fill="none" xmlns="http://www.w3.org/2000/svg">
<path fill-rule="evenodd" clip-rule="evenodd" d="M9 2L3 1C1.13857 18.8027 0.291706 31.1379 1.49998 50.5C13.8624 86.0177 25.8182 93.5639 57 101C65.6044 103.195 76.6334 102.497 88.5 101C118.796 91.0128 127.898 78.0191 139.5 50.5L138 1H132C132.191 4.2066 132.405 7.2848 132.608 10.2246C134.081 31.4712 135.053 45.4885 123.5 48.5C80.4757 31.9993 55.6707 31.5563 19.5 48.5C6.10683 41.6259 7.19708 28.1999 8.3419 14.1018C8.66873 10.077 9 5.9975 9 2ZM42 51.5H97C102.5 51.5 103 55 97 58C86 65 57 68 42 58C38.5658 55.7105 37.5 52 42 51.5Z" fill="url(#paint0_linear_1_7)"/>
<path fill-rule="evenodd" clip-rule="evenodd" d="M9 2L3 1C1.13857 18.8027 0.291706 31.1379 1.49998 50.5C13.8624 86.0177 25.8182 93.5639 57 101C65.6044 103.195 76.6334 102.497 88.5 101C118.796 91.0128 127.898 78.0191 139.5 50.5L138 1H132C132.191 4.2066 132.405 7.2848 132.608 10.2246C134.081 31.4712 135.053 45.4885 123.5 48.5C80.4757 31.9993 55.6707 31.5563 19.5 48.5C6.10683 41.6259 7.19708 28.1999 8.3419 14.1018C8.66873 10.077 9 5.9975 9 2ZM42 51.5H97C102.5 51.5 103 55 97 58C86 65 57 68 42 58C38.5658 55.7105 37.5 52 42 51.5Z" fill="url(#paint1_linear_1_7)"/>
<path fill-rule="evenodd" clip-rule="evenodd" d="M9 2L3 1C1.13857 18.8027 0.291706 31.1379 1.49998 50.5C13.8624 86.0177 25.8182 93.5639 57 101C65.6044 103.195 76.6334 102.497 88.5 101C118.796 91.0128 127.898 78.0191 139.5 50.5L138 1H132C132.191 4.2066 132.405 7.2848 132.608 10.2246C134.081 31.4712 135.053 45.4885 123.5 48.5C80.4757 31.9993 55.6707 31.5563 19.5 48.5C6.10683 41.6259 7.19708 28.1999 8.3419 14.1018C8.66873 10.077 9 5.9975 9 2ZM42 51.5H97C102.5 51.5 103 55 97 58C86 65 57 68 42 58C38.5658 55.7105 37.5 52 42 51.5Z" stroke="#392508"/>
<defs>
<linearGradient id="paint0_linear_1_7" x1="40.5" y1="90" x2="116" y2="69.5" gradientUnits="userSpaceOnUse">
<stop stop-color="#392508"/>
<stop offset="0.385417" stop-color="#241500"/>
<stop offset="0.829369" stop-color="#241500"/>
</linearGradient>
<linearGradient id="paint1_linear_1_7" x1="25.5" y1="84.5" x2="142.5" y2="58.5" gradientUnits="userSpaceOnUse">
<stop stop-color="#392508"/>
<stop offset="0.385417" stop-color="#241500"/>
<stop offset="0.841212" stop-color="#241500"/>
<stop offset="0.95066" stop-color="#392508"/>
</linearGradient>
</defs>
</svg>
