<svg width="164" height="103" viewBox="0 0 164 103" fill="none" xmlns="http://www.w3.org/2000/svg">
<path d="M105 0.5C118.543 3.63073 128.083 8.42208 142.5 17.5C154.28 36.0758 158.681 52.1168 164 77C152.738 83.726 143.852 82.6464 127.909 82.5034L128.5 103H36.5L42.5 49.5L38 82C22.3703 83.4374 12.4916 83.0237 0 74.5C5.72516 52.6399 9.89328 41.3812 18 22C31.3602 10.3795 40.8771 5.59336 60 0.5C54.5 4.5 64 18 81.5 23C98.906 18.6054 103.5 16 105 0.5Z" fill="url(#paint0_linear_7_24)"/>
<path d="M105 0.5C118.543 3.63073 128.083 8.42208 142.5 17.5C154.28 36.0758 158.681 52.1168 164 77C152.738 83.726 143.852 82.6464 127.909 82.5034L128.5 103H36.5L42.5 49.5L38 82C22.3703 83.4374 12.4916 83.0237 0 74.5C5.72516 52.6399 9.89328 41.3812 18 22C31.3602 10.3795 40.8771 5.59336 60 0.5C54.5 4.5 64 18 81.5 23C98.906 18.6054 103.5 16 105 0.5Z" fill="url(#paint1_linear_7_24)" fill-opacity="0.36"/>
<path d="M87.8794 89.6117C88.8095 88.2232 86.3917 85.0308 86.3917 85.0308C86.3917 85.0308 90.7721 88.3125 91.4749 91.2775C92.403 95.1934 90.8461 98.8574 87.6315 100.717C80.1926 105.02 72.0388 102.917 64.571 97.1079C58.9026 92.6985 55.8814 88.6122 55.1469 81.005C54.651 75.8688 55.5189 69.3444 56.1403 67.2621C56.2937 66.748 57.2851 66.7305 57.3801 67.2621C57.5041 67.9562 56.6573 69.7707 56.3882 71.4267C55.7902 75.1068 56.3882 81.005 56.3882 81.005C56.3882 81.005 56.4991 83.7495 59.2398 85.0308C61.9805 86.312 63.4327 88.1313 65.9348 92.5269C65.9348 92.5269 66.3067 89.6117 66.5547 88.3624C66.8026 87.113 66.5301 86.6509 66.1827 85.4472C65.866 84.3494 65.2329 83.2732 64.819 82.8097C64.5029 82.4558 64.9107 82.0482 65.1909 82.3932C66.4307 83.9202 70.6461 88.3624 70.6461 88.3624C77.1963 92.751 85.6478 92.9433 87.8794 89.6117Z" fill="url(#paint2_linear_7_24)"/>
<path d="M59.3638 80.1722C59.6117 80.8662 62.0151 80.5313 63.9511 81.1439C63.9511 81.1439 61.7194 78.5064 60.6036 78.3675C59.8519 78.274 59.1158 79.4781 59.3638 80.1722Z" fill="url(#paint3_linear_7_24)"/>
<path d="M95.6902 88.9177C95.3393 85.169 90.1111 81.6992 90.1111 81.6992C90.1111 81.6992 92.9627 81.4215 95.9382 84.3367C98.9138 87.2518 100.292 92.4702 98.5418 96.6914C96.9301 100.578 88.5708 102.925 90.1111 101.272C92.1264 99.1107 96.1445 93.7695 95.6902 88.9177Z" fill="url(#paint4_linear_7_24)"/>
<path d="M101.145 89.8894C100.329 87.627 99.5533 86.3856 97.674 85.0308C101.867 85.7564 103.501 86.6966 104.361 89.1953C104.957 90.9253 103.188 93.2219 101.145 93.6374C101.552 92.0618 101.55 91.3497 101.145 89.8894Z" fill="url(#paint5_linear_7_24)"/>
<path d="M106.229 76.9794C103.954 79.133 102.144 79.5508 99.1617 79.7557C109.871 77.7171 107.161 65.5159 99.6576 64.4858C102.192 62.6028 103.921 62.0202 106.725 64.0694C105.95 59.7111 102.633 56.5732 101.145 55.1851C100.564 54.643 101.662 53.5582 102.261 54.0745C103.873 55.4627 105.538 58.1273 106.725 60.599C107.923 63.7776 108.524 65.5907 108.708 69.2056C109.117 72.5498 108.777 74.2973 106.229 76.9794Z" fill="url(#paint6_linear_7_24)"/>
<path d="M103.129 82.1156C100.037 82.8353 98.3867 82.7061 95.5663 81.6991C97.15 83.0436 98.8343 84.1161 101.765 84.8919C108.942 84.8912 109.384 81.362 108.832 75.8688C108.832 75.8688 106.222 81.3959 103.129 82.1156Z" fill="url(#paint7_linear_7_24)"/>
<path d="M88.3753 84.3367C91.2731 85.9799 92.4438 87.2661 93.0866 90.7223C93.5437 89.1008 92.9857 87.635 92.0948 85.586C90.1192 82.83 90.0603 82.7814 85.1518 79.8945C83.1764 77.9475 81.6008 75.906 80.6885 73.6478C80.8271 75.5603 80.9488 76.631 82.1763 78.5064C83.8024 81.3397 85.144 82.6273 88.3753 84.3367Z" fill="url(#paint8_linear_7_24)"/>
<path d="M87.3835 76.5629C85.0956 75.5518 84.5933 75.0106 83.5401 73.5089C84.6919 73.0185 85.3062 73.0008 86.2677 74.0642C87.5475 75.315 88.5638 75.9513 90.2351 76.7017C89.7926 76.9473 88.5462 77.2211 87.3835 76.5629Z" fill="url(#paint9_linear_7_24)"/>
<path d="M84.284 76.2853C91.6216 79.859 96.1833 78.631 101.711 73.5089C99.8415 78.9437 97.3671 80.947 90.9097 80.1722C87.4121 79.4744 85.6402 78.7628 84.284 76.2853Z" fill="url(#paint10_linear_7_24)"/>
<path d="M92.4667 57.6838C91.269 58.9936 91.5859 61.3329 89.6152 62.5424C96.0653 60.731 97.7581 57.7266 98.7898 51.9922C97.2123 55.6887 94.346 55.6286 92.4667 57.6838Z" fill="url(#paint11_linear_7_24)"/>
<path d="M90.979 67.1233C89.4131 68.7471 87.8356 68.9723 85.1518 69.2056C88.0704 67.6626 89.4668 66.9219 90.483 64.9023C91.3477 65.5818 91.5407 66.0445 90.979 67.1233Z" fill="url(#paint12_linear_7_24)"/>
<path d="M102.261 37C102.538 39.9205 102.357 41.4655 101.517 44.0797C101.517 44.0797 99.1617 48.7995 98.2939 49.91C97.426 51.0205 90.979 55.3239 90.979 55.3239L93.5826 51.7146L94.0785 49.6324C94.0785 49.6324 94.0785 46.882 94.8224 46.3008C95.5663 45.7195 101.123 42.3249 102.261 37Z" fill="url(#paint13_linear_7_24)"/>
<path d="M61.8434 56.4344C60.9406 57.9827 61.3032 58.9155 62.2153 60.5989C63.9062 56.9826 65.9337 57.7922 70.1501 60.8766C71.3692 63.4453 71.6249 65.1435 71.5139 68.2339L71.266 73.0925C71.266 75.0359 73.7456 79.2004 74.8614 80.1721C75.3708 80.6157 77.3323 82.1885 79.4487 82.9485C81.9684 83.8532 84.9039 83.9202 84.9039 83.9202C81.1665 80.6279 79.8788 78.2647 79.0768 73.0925C82.5324 72.88 84.167 72.2489 85.7717 70.3161C82.8138 70.5039 81.1344 70.1768 79.0768 68.6503C83.6503 69.1583 85.7222 68.2951 88.6233 64.9023C85.1191 65.1809 83.4 64.893 80.8125 63.5141C87.1573 63.8864 89.3129 62.4034 90.979 57.1285C87.6564 59.4675 85.5292 60.0618 81.1844 59.6272C87.7773 57.5096 90.3715 55.1245 92.8387 48.5218C93.4547 44.7714 93.3797 42.7942 92.4667 39.4987C92.1406 44.0378 90.6828 46.0835 86.7636 49.2159C81.5606 51.2906 79.1919 53.0767 75.7293 57.1285C74.427 55.4088 73.3537 54.7217 70.894 53.9357C72.4888 52.0319 73.0307 50.7037 73.1257 47.6889C78.4174 45.04 81.8336 44.3833 88.6233 44.4961L80.8125 43.9409C77.0003 43.7631 75.3082 44.2905 72.7537 45.8843L71.266 42.275C71.4596 45.6027 70.5881 47.3939 67.4226 50.4653C64.3635 52.2137 63.1713 53.5401 61.8434 56.4344Z" fill="url(#paint14_linear_7_24)"/>
<defs>
<linearGradient id="paint0_linear_7_24" x1="173" y1="45" x2="41.5" y2="75" gradientUnits="userSpaceOnUse">
<stop offset="0.0779601" stop-color="#420A43"/>
<stop offset="0.618065" stop-color="#310232"/>
<stop offset="0.889954" stop-color="#310232"/>
</linearGradient>
<linearGradient id="paint1_linear_7_24" x1="4.5" y1="58.5" x2="33.5" y2="67" gradientUnits="userSpaceOnUse">
<stop stop-color="#3E1040"/>
<stop offset="1"/>
</linearGradient>
<linearGradient id="paint2_linear_7_24" x1="73.3703" y1="66.8699" x2="73.3703" y2="103" gradientUnits="userSpaceOnUse">
<stop stop-color="#BA68C8"/>
<stop offset="1" stop-color="#760D79"/>
</linearGradient>
<linearGradient id="paint3_linear_7_24" x1="61.6329" y1="78.3624" x2="61.6329" y2="81.1439" gradientUnits="userSpaceOnUse">
<stop stop-color="#BA68C8"/>
<stop offset="1" stop-color="#760D79"/>
</linearGradient>
<linearGradient id="paint4_linear_7_24" x1="94.6182" y1="81.692" x2="94.6182" y2="101.808" gradientUnits="userSpaceOnUse">
<stop stop-color="#BA68C8"/>
<stop offset="1" stop-color="#760D79"/>
</linearGradient>
<linearGradient id="paint5_linear_7_24" x1="101.076" y1="85.0308" x2="101.076" y2="93.6374" gradientUnits="userSpaceOnUse">
<stop stop-color="#BA68C8"/>
<stop offset="1" stop-color="#760D79"/>
</linearGradient>
<linearGradient id="paint6_linear_7_24" x1="104.008" y1="53.9388" x2="104.008" y2="79.7557" gradientUnits="userSpaceOnUse">
<stop stop-color="#BA68C8"/>
<stop offset="1" stop-color="#760D79"/>
</linearGradient>
<linearGradient id="paint7_linear_7_24" x1="102.283" y1="75.8688" x2="102.283" y2="84.8919" gradientUnits="userSpaceOnUse">
<stop stop-color="#BA68C8"/>
<stop offset="1" stop-color="#760D79"/>
</linearGradient>
<linearGradient id="paint8_linear_7_24" x1="86.9692" y1="73.6478" x2="86.9692" y2="90.7223" gradientUnits="userSpaceOnUse">
<stop stop-color="#BA68C8"/>
<stop offset="1" stop-color="#760D79"/>
</linearGradient>
<linearGradient id="paint9_linear_7_24" x1="86.8876" y1="73.186" x2="86.8876" y2="76.9731" gradientUnits="userSpaceOnUse">
<stop stop-color="#BA68C8"/>
<stop offset="1" stop-color="#760D79"/>
</linearGradient>
<linearGradient id="paint10_linear_7_24" x1="92.9973" y1="73.5089" x2="92.9973" y2="80.3325" gradientUnits="userSpaceOnUse">
<stop stop-color="#BA68C8"/>
<stop offset="1" stop-color="#760D79"/>
</linearGradient>
<linearGradient id="paint11_linear_7_24" x1="91.9708" y1="51.9922" x2="91.9708" y2="69.2056" gradientUnits="userSpaceOnUse">
<stop stop-color="#BA68C8"/>
<stop offset="1" stop-color="#760D79"/>
</linearGradient>
<linearGradient id="paint12_linear_7_24" x1="91.9708" y1="51.9922" x2="91.9708" y2="69.2056" gradientUnits="userSpaceOnUse">
<stop stop-color="#BA68C8"/>
<stop offset="1" stop-color="#760D79"/>
</linearGradient>
<linearGradient id="paint13_linear_7_24" x1="96.6803" y1="37" x2="96.6803" y2="55.3239" gradientUnits="userSpaceOnUse">
<stop stop-color="#BA68C8"/>
<stop offset="1" stop-color="#760D79"/>
</linearGradient>
<linearGradient id="paint14_linear_7_24" x1="77.28" y1="39.4987" x2="77.28" y2="83.9202" gradientUnits="userSpaceOnUse">
<stop stop-color="#BA68C8"/>
<stop offset="1" stop-color="#760D79"/>
</linearGradient>
</defs>
</svg>
