<svg width="327" height="485" viewBox="0 0 327 485" fill="none" xmlns="http://www.w3.org/2000/svg">
<path d="M229.048 454.307C212.304 427.385 199.203 375.336 197.653 349.312L118.002 309.602L84.8629 454.307H229.048Z" fill="#AC6651" stroke="black" stroke-width="9"/>
<mask id="mask0_4_719" style="mask-type:alpha" maskUnits="userSpaceOnUse" x="84" y="309" width="146" height="146">
<path d="M229.043 454.312C212.299 429.68 199.199 369.744 197.649 345.933L118.001 309.602L84.8629 454.312H229.043Z" fill="#AC6651"/>
</mask>
<g mask="url(#mask0_4_719)">
<g style="mix-blend-mode:multiply">
<ellipse cx="191.604" cy="318.689" rx="68.6041" ry="72.689" fill="black"/>
</g>
</g>
<mask id="path-4-inside-1_4_719" fill="white">
<path fill-rule="evenodd" clip-rule="evenodd" d="M263.8 227.381C263.768 227.225 263.736 227.068 263.704 226.912C263.671 226.755 263.639 226.599 263.606 226.443L244.544 134.34C244.524 134.243 244.504 134.146 244.484 134.048C244.464 133.951 244.443 133.854 244.423 133.756L244.342 133.366L244.341 133.367C232.46 77.5781 183.882 43.2748 135.54 56.683C87.1986 70.0912 57.324 126.154 68.5715 182.119L68.5692 182.119L88.3264 277.581L88.3426 277.577C100.671 332.638 148.889 366.339 196.874 353.03C244.86 339.721 274.649 284.383 264.085 228.832L264.1 228.828L263.8 227.381Z"/>
</mask>
<path fill-rule="evenodd" clip-rule="evenodd" d="M263.8 227.381C263.768 227.225 263.736 227.068 263.704 226.912C263.671 226.755 263.639 226.599 263.606 226.443L244.544 134.34C244.524 134.243 244.504 134.146 244.484 134.048C244.464 133.951 244.443 133.854 244.423 133.756L244.342 133.366L244.341 133.367C232.46 77.5781 183.882 43.2748 135.54 56.683C87.1986 70.0912 57.324 126.154 68.5715 182.119L68.5692 182.119L88.3264 277.581L88.3426 277.577C100.671 332.638 148.889 366.339 196.874 353.03C244.86 339.721 274.649 284.383 264.085 228.832L264.1 228.828L263.8 227.381Z" fill="#AC6651"/>
<path d="M263.8 227.381L254.98 229.171L254.983 229.188L254.987 229.205L263.8 227.381ZM263.606 226.443L254.793 228.267L254.796 228.284L254.8 228.302L263.606 226.443ZM244.544 134.34L235.726 136.143L235.729 136.154L235.731 136.165L244.544 134.34ZM244.484 134.048L253.297 132.224L253.297 132.224L244.484 134.048ZM244.423 133.756L235.61 135.58L235.612 135.591L235.614 135.602L244.423 133.756ZM244.342 133.366L253.156 131.542L251.212 122.152L241.964 124.686L244.342 133.366ZM244.341 133.367L235.538 135.241L237.524 144.567L246.719 142.047L244.341 133.367ZM135.54 56.683L133.135 48.0104V48.0104L135.54 56.683ZM68.5715 182.119L70.9902 190.787L79.0422 188.541L77.3951 180.345L68.5715 182.119ZM68.5692 182.119L66.1505 173.45L58.052 175.71L59.756 183.943L68.5692 182.119ZM88.3264 277.581L79.5132 279.405L81.4624 288.823L90.7305 286.254L88.3264 277.581ZM88.3426 277.577L97.1251 275.61L95.0575 266.376L85.9385 268.904L88.3426 277.577ZM264.085 228.832L261.68 220.16L253.696 222.374L255.244 230.514L264.085 228.832ZM264.1 228.828L266.505 237.501L274.619 235.25L272.913 227.004L264.1 228.828ZM272.62 225.592C272.586 225.424 272.552 225.256 272.517 225.088L254.891 228.736C254.921 228.881 254.95 229.026 254.98 229.171L272.62 225.592ZM272.517 225.088C272.482 224.92 272.447 224.752 272.412 224.584L254.8 228.302C254.83 228.446 254.861 228.591 254.891 228.736L272.517 225.088ZM235.731 136.165L254.793 228.267L272.419 224.619L253.357 132.516L235.731 136.165ZM253.362 132.538C253.34 132.434 253.319 132.33 253.297 132.224L235.671 135.872C235.689 135.962 235.708 136.052 235.726 136.143L253.362 132.538ZM253.297 132.224C253.275 132.12 253.254 132.015 253.232 131.911L235.614 135.602C235.633 135.692 235.652 135.782 235.671 135.873L253.297 132.224ZM235.529 135.19L235.61 135.58L253.236 131.932L253.156 131.542L235.529 135.19ZM246.719 142.047L246.721 142.046L241.964 124.686L241.962 124.687L246.719 142.047ZM253.143 131.492C240.442 71.8514 187.6 32.904 133.135 48.0104L137.946 65.3556C180.165 53.6456 224.477 83.3049 235.538 135.241L253.143 131.492ZM133.135 48.0104C79.318 62.9372 47.7734 124.31 59.7479 183.892L77.3951 180.345C66.8747 127.999 95.0793 77.2452 137.946 65.3556L133.135 48.0104ZM70.9879 190.788L70.9902 190.787L66.1528 173.45L66.1505 173.45L70.9879 190.788ZM97.1396 275.757L77.3824 180.295L59.756 183.943L79.5132 279.405L97.1396 275.757ZM85.9385 268.904L85.9223 268.908L90.7305 286.254L90.7467 286.25L85.9385 268.904ZM79.5601 279.543C92.7456 338.431 145.225 376.695 199.28 361.703L194.469 344.357C152.552 355.984 108.597 326.845 97.1251 275.61L79.5601 279.543ZM199.28 361.703C252.701 346.886 284.174 286.296 272.927 227.151L255.244 230.514C265.124 282.47 237.018 332.556 194.469 344.357L199.28 361.703ZM261.694 220.156L261.68 220.16L266.491 237.505L266.505 237.501L261.694 220.156ZM254.987 229.205L255.286 230.652L272.913 227.004L272.613 225.557L254.987 229.205Z" fill="black" mask="url(#path-4-inside-1_4_719)"/>
<path d="M178.156 307.137L179.644 302.824L178.156 307.137C183.481 308.84 189.072 309.321 194.601 308.529C200.131 307.737 205.452 305.694 210.258 302.539C215.06 299.387 219.238 295.198 222.575 290.244C225.911 285.292 228.348 279.664 229.773 273.691C230.778 269.483 231.269 265.152 231.243 260.822C231.206 254.735 225.058 251.844 220.241 253.945C213.336 256.957 200.591 262.097 191.332 263.572C181.065 265.207 166.049 263.774 158.194 262.785C153.102 262.144 147.776 266.668 149.015 272.565C149.901 276.784 151.291 280.857 153.156 284.665C155.796 290.055 159.344 294.826 163.622 298.688C167.902 302.551 172.835 305.435 178.156 307.137Z" fill="black" stroke="black" stroke-width="9"/>
<mask id="mask1_4_719" style="mask-type:alpha" maskUnits="userSpaceOnUse" x="152" y="256" width="75" height="49">
<path d="M226.482 256.016C227.082 261.63 226.721 267.326 225.419 272.778C224.118 278.231 221.902 283.333 218.897 287.794C215.892 292.254 212.158 295.986 207.907 298.776C203.656 301.566 198.973 303.36 194.123 304.054C189.274 304.749 184.354 304.331 179.644 302.824C174.934 301.318 170.527 298.752 166.673 295.273C162.82 291.795 159.596 287.472 157.186 282.551C154.776 277.63 153.227 272.208 152.627 266.594L226.482 256.016Z" fill="#171921"/>
</mask>
<g mask="url(#mask1_4_719)">
<ellipse rx="25.0638" ry="28.8856" transform="matrix(0.989898 -0.141779 0.106268 0.994338 194.772 310.024)" fill="#FC909F"/>
</g>
<path d="M199.978 144.321C206.567 140.731 222.071 137.456 231.373 153.071" stroke="black" stroke-width="14.6526" stroke-linecap="round"/>
<path d="M112.28 178.386C114.688 170.43 123.538 155.334 139.678 158.6" stroke="black" stroke-width="14.6526" stroke-linecap="round"/>
<path opacity="0.35" d="M226.5 109C216 101.5 207.132 102.539 200.543 103.212L196.5 75C209.5 82.5 220 97 226.5 109Z" fill="#717376"/>
<path d="M113.691 23.9118C113.691 23.9118 120.363 18.5791 148.521 10.3666C176.679 2.154 186.946 5.36222 186.946 5.36222L200.653 103.4C200.653 103.4 191.306 103.167 168.058 109.045C144.81 114.924 133.683 122.057 133.683 122.057L113.691 23.9118Z" fill="#171921"/>
<path d="M70.8927 124.749C62.9858 68.7518 98.0243 32.9906 113.916 23.1192L133.683 122.057C111.358 68.7518 80.9701 101.641 70.8927 124.749Z" fill="#171921"/>
<path opacity="0.35" d="M92.4042 183.977C84.0321 147.363 117.985 127.665 133.683 122.056C125.543 100.07 109 85.5 94.5 96.5C69.5 132.5 73.1613 170.612 81 196.5L92.4042 183.977Z" fill="#717376"/>
<path fill-rule="evenodd" clip-rule="evenodd" d="M128.237 199.035C128.353 200.163 129.81 200.411 130.564 199.566C133.434 196.35 137.717 194.001 142.663 193.321C144.011 193.135 145.336 193.084 146.621 193.154C149.519 193.314 152.353 190.871 150.751 188.451C148.135 184.502 143.838 182.204 139.259 182.834C132.351 183.785 127.416 191.038 128.237 199.035Z" fill="black"/>
<path fill-rule="evenodd" clip-rule="evenodd" d="M202.773 185.602C202.887 186.719 204.331 186.965 205.078 186.128C207.921 182.942 212.164 180.615 217.064 179.941C218.378 179.76 219.67 179.708 220.923 179.772C223.822 179.923 226.655 177.477 225.042 175.064C222.447 171.184 218.208 168.931 213.692 169.552C206.848 170.493 201.959 177.679 202.773 185.602Z" fill="black"/>
<path d="M246.059 180.377C246.059 199.348 232.901 213.567 218.001 213.567C203.101 213.567 189.943 199.348 189.943 180.377C189.943 161.405 203.101 147.186 218.001 147.186C232.901 147.186 246.059 161.405 246.059 180.377Z" stroke="black" stroke-width="9"/>
<path d="M168.152 192.492C168.152 211.463 154.995 225.682 140.095 225.682C125.194 225.682 112.037 211.463 112.037 192.492C112.037 173.52 125.194 159.301 140.095 159.301C154.995 159.301 168.152 173.52 168.152 192.492Z" stroke="black" stroke-width="9"/>
<path d="M188.931 189.799C188.931 186.943 187.951 184.204 186.207 182.185C184.462 180.165 182.096 179.031 179.629 179.031C177.162 179.031 174.796 180.165 173.051 182.185C171.307 184.204 170.327 186.943 170.327 189.799" stroke="black" stroke-width="9"/>
<path d="M110.444 195.184L75.5602 202.587" stroke="black" stroke-width="9"/>
<path d="M178.208 207.2C184.278 204.527 194.863 205.334 194.212 218.929C193.633 231.011 182.925 233.41 179.513 230.593" stroke="black" stroke-width="9"/>
<path d="M90.0953 208.881C87.386 207.848 84.4613 207.299 81.4675 207.299C69.266 207.299 59.3747 216.048 60.5374 232.201C61.7486 249.028 70.4287 255.085 82.6303 255.085C83.9879 255.085 85.317 254.947 86.607 254.683C88.0146 254.394 89.3757 253.956 90.6767 253.382" stroke="black" stroke-width="14"/>
<path d="M91.2581 253.115C88.6074 254.383 85.6916 255.085 82.6303 255.085C70.4287 255.085 61.7486 249.028 60.5374 232.201C59.3747 216.048 69.266 207.299 81.4675 207.299C85.1157 207.299 88.6613 208.115 91.8395 209.627L91.2581 253.115Z" fill="#AC6651"/>
<path d="M86.607 218.741C81.9559 216.273 71.7234 214.972 68.0025 229.51" stroke="black" stroke-width="5"/>
<path d="M74.3978 219.414C76.9172 221.881 81.7233 229.509 80.7931 240.278" stroke="black" stroke-width="5"/>
<path d="M318.09 480.094H7.1213C25.828 442.377 52.1422 418.544 94.1506 407.456C95.4131 407.123 97.4544 407.159 100.437 407.963C103.35 408.747 106.76 410.152 110.534 412.072C118.078 415.911 126.567 421.547 134.614 427.443C142.634 433.319 150.089 439.362 155.548 443.943C158.274 446.231 160.496 448.15 162.034 449.494C162.802 450.165 163.399 450.693 163.802 451.051C164.004 451.23 164.157 451.367 164.259 451.458L164.372 451.56L164.4 451.585L164.406 451.59L164.407 451.591L168.595 455.367L171.347 450.447L171.347 450.447L171.348 450.446L171.348 450.444L171.358 450.427L171.403 450.348C171.444 450.276 171.508 450.164 171.593 450.016C171.764 449.721 172.021 449.28 172.358 448.716C173.033 447.587 174.026 445.968 175.286 444.03C177.812 440.145 181.377 435.029 185.561 430.041C189.772 425.023 194.469 420.303 199.234 417.065C204.057 413.788 208.377 412.409 212.075 412.986C259.536 420.394 294.768 444.296 318.09 480.094Z" fill="#6BD9E9" stroke="black" stroke-width="9"/>
<path d="M79.9408 408.554L84.5514 388.686C85.2568 385.646 89.296 384.828 91.4541 387.112C104.849 401.292 120.058 403.493 128.965 403.322C132.051 403.263 134.694 406.682 133.418 409.482L120.932 436.897C120.236 438.426 118.592 439.261 116.968 438.794C109.846 436.747 90.7647 429.72 80.2936 411.1C79.8586 410.327 79.7414 409.413 79.9408 408.554Z" fill="#D2EFF3" stroke="black" stroke-width="9"/>
<path d="M231.089 408.194L220.443 387.46C219.069 384.784 215.089 384.815 213.267 387.243C207.836 394.484 200.795 398.706 196.445 400.803C194.391 401.794 193.367 404.325 194.397 406.341L208.118 433.179C208.818 434.549 210.306 435.263 211.687 434.557C215.245 432.739 222.433 427.349 231.045 411.584C231.621 410.53 231.633 409.254 231.089 408.194Z" fill="#D2EFF3" stroke="black" stroke-width="9"/>
<path d="M145.909 432.77L135.444 403.829L127.304 424.02L145.909 432.77Z" fill="black" stroke="black" stroke-width="9" stroke-linejoin="round"/>
<path d="M182.536 431.424L193.001 402.483L201.141 422.674L182.536 431.424Z" fill="black" stroke="black" stroke-width="9" stroke-linejoin="round"/>
<path d="M100.56 378.253L86.6068 382.291L98.2346 391.041L100.56 378.253Z" fill="black" stroke="black" stroke-width="9" stroke-linejoin="round"/>
<path d="M204.629 378.253L217.42 382.291L209.28 391.041L204.629 378.253Z" fill="black" stroke="black" stroke-width="9" stroke-linejoin="round"/>
</svg>
